<svg xmlns="http://www.w3.org/2000/svg" width="1200" height="750" viewBox="0 0 1200 750" role="img" aria-label="MedSight thumbnail">
  <defs>
    <linearGradient id="bg" x1="0" y1="0" x2="1" y2="1">
      <stop offset="0" stop-color="#0B1220"/>
      <stop offset="0.55" stop-color="#0F2A3E"/>
      <stop offset="1" stop-color="#133A5B"/>
    </linearGradient>
    <linearGradient id="accent" x1="0" y1="0" x2="1" y2="0">
      <stop offset="0" stop-color="#6EE7FF" stop-opacity="0.95"/>
      <stop offset="1" stop-color="#A78BFA" stop-opacity="0.95"/>
    </linearGradient>
    <filter id="softGlow" x="-30%" y="-30%" width="160%" height="160%">
      <feGaussianBlur in="SourceGraphic" stdDeviation="10" result="blur"/>
      <feColorMatrix in="blur" type="matrix"
        values="1 0 0 0 0
                0 1 0 0 0
                0 0 1 0 0
                0 0 0 0.35 0" result="glow"/>
      <feMerge>
        <feMergeNode in="glow"/>
        <feMergeNode in="SourceGraphic"/>
      </feMerge>
    </filter>
  </defs>

  <rect width="1200" height="750" fill="url(#bg)"/>

  <!-- subtle grid -->
  <g opacity="0.18">
    <path d="M0 110H1200 M0 220H1200 M0 330H1200 M0 440H1200 M0 550H1200 M0 660H1200" stroke="#8AA4C7" stroke-width="1"/>
    <path d="M140 0V750 M280 0V750 M420 0V750 M560 0V750 M700 0V750 M840 0V750 M980 0V750 M1120 0V750" stroke="#8AA4C7" stroke-width="1"/>
  </g>

  <!-- accent wave -->
  <path
    d="M-40 520 C 160 420, 360 660, 560 560 S 980 420, 1280 540"
    fill="none"
    stroke="url(#accent)"
    stroke-width="14"
    stroke-linecap="round"
    opacity="0.9"
    filter="url(#softGlow)"
  />

  <!-- simple glasses icon -->
  <g transform="translate(260 170)" filter="url(#softGlow)">
    <rect x="0" y="0" width="680" height="360" rx="44" fill="rgba(255,255,255,0.05)" stroke="rgba(255,255,255,0.18)" stroke-width="2"/>

    <g transform="translate(70 105)" fill="none" stroke="rgba(255,255,255,0.85)" stroke-width="10" stroke-linecap="round" stroke-linejoin="round">
      <rect x="0" y="0" width="210" height="150" rx="42"/>
      <rect x="330" y="0" width="210" height="150" rx="42"/>
      <path d="M210 72 C 255 40, 285 40, 330 72"/>
      <path d="M-20 42 C 10 12, 35 0, 70 0"/>
      <path d="M560 0 C 595 0, 620 12, 650 42"/>
    </g>

    <!-- telemetry dots -->
    <g transform="translate(92 65)" opacity="0.9">
      <circle cx="0" cy="0" r="6" fill="#6EE7FF"/>
      <circle cx="26" cy="0" r="6" fill="#A78BFA"/>
      <circle cx="52" cy="0" r="6" fill="#6EE7FF"/>
    </g>
  </g>

  <text x="80" y="160" fill="rgba(255,255,255,0.92)" font-size="64" font-weight="700" font-family="ui-sans-serif, system-ui, -apple-system, Segoe UI, Roboto, Helvetica, Arial">
    MedSight
  </text>
  <text x="80" y="215" fill="rgba(255,255,255,0.78)" font-size="26" font-weight="500" font-family="ui-sans-serif, system-ui, -apple-system, Segoe UI, Roboto, Helvetica, Arial">
    Smart-glasses clinical observation + longitudinal reporting
  </text>

  <text x="80" y="695" fill="rgba(255,255,255,0.72)" font-size="22" font-weight="600" font-family="ui-sans-serif, system-ui, -apple-system, Segoe UI, Roboto, Helvetica, Arial">
    Winner · Best Use of ElevenLabs · HackSMU VII
  </text>
</svg>
